<svg width="12" height="15" viewBox="0 0 12 15" fill="none" xmlns="http://www.w3.org/2000/svg">
<g clip-path="url(#clip0_2021_57)">
<path d="M9.78029 1.57531C8.7364 0.525044 7.36814 0 5.99989 0C4.63164 0 3.26338 0.525044 2.21949 1.57531C0.131519 3.67567 -0.142494 6.64138 1.88154 9.651C2.90932 11.1791 5.99989 15.0002 5.99989 15.0002C5.99989 15.0002 9.09046 11.1791 10.1182 9.651C12.1425 6.64138 11.8683 3.67567 9.78029 1.57531ZM5.99989 8.76907C4.22306 8.76907 2.78255 7.32001 2.78255 5.53263C2.78255 3.74526 4.22306 2.2962 5.99989 2.2962C7.77672 2.2962 9.21723 3.74526 9.21723 5.53263C9.21723 7.32001 7.77672 8.76907 5.99989 8.76907Z" fill="#E02F2F"/>
</g>
<defs>
<clipPath id="clip0_2021_57">
<rect x="0.5" width="11" height="15" rx="5.5" fill="white"/>
</clipPath>
</defs>
</svg>
